<?xml version="1.0" standalone="no"?>
<!DOCTYPE svg PUBLIC "-//W3C//DTD SVG 20010904//EN"
 "http://www.w3.org/TR/2001/REC-SVG-20010904/DTD/svg10.dtd">
<svg version="1.0" xmlns="http://www.w3.org/2000/svg"
 width="700.000000pt" height="700.000000pt" viewBox="0 0 700.000000 700.000000"
 preserveAspectRatio="xMidYMid meet">
<metadata>
Created by potrace 1.11, written by Peter Selinger 2001-2013
</metadata>
<g transform="translate(0.000000,700.000000) scale(0.100000,-0.100000)"
fill="#000000" stroke="none">
<path d="M855 3503 l0 -3498 2653 -3 c1458 -1 2652 1 2652 4 0 5 -382 635
-454 749 -18 28 -59 94 -92 148 -32 54 -67 110 -76 125 -10 15 -21 34 -25 42
-4 8 -34 58 -66 110 -33 52 -68 109 -77 125 -10 17 -73 120 -140 230 -68 110
-130 212 -139 227 -23 39 -163 269 -178 294 -12 19 -7 24 80 81 312 206 602
511 799 840 60 99 103 183 172 336 64 141 136 394 170 592 25 146 28 189 31
415 3 231 -12 399 -55 590 -85 379 -241 720 -472 1028 -94 126 -118 153 -268
302 -425 423 -972 680 -1595 749 -44 5 -719 10 -1500 10 l-1421 1 1 -3497z"/>
</g>
</svg>
